<?xml version="1.0" encoding="utf-8"?>
<!-- Generator: Adobe Illustrator 13.0.0, SVG Export Plug-In  -->
<!DOCTYPE svg PUBLIC "-//W3C//DTD SVG 1.1//EN" "http://www.w3.org/Graphics/SVG/1.1/DTD/svg11.dtd" [
	<!ENTITY ns_flows "http://ns.adobe.com/Flows/1.0/">
]>
<svg version="1.1"
	 xmlns="http://www.w3.org/2000/svg" xmlns:xlink="http://www.w3.org/1999/xlink" xmlns:a="http://ns.adobe.com/AdobeSVGViewerExtensions/3.0/"
	 x="0px" y="0px" width="13px" height="9px" viewBox="-0.886 0.083 13 9" enable-background="new -0.886 0.083 13 9"
	 xml:space="preserve">
<defs>
</defs>
<path display="none" fill-rule="evenodd" clip-rule="evenodd" d="M5.771,9.814c0.04,0,2.982-4.939,2.982-6.674
	C8.753,1.406,7.418,0,5.771,0S2.788,1.406,2.788,3.141C2.788,4.875,5.731,9.814,5.771,9.814z"/>
<path display="none" fill-rule="evenodd" clip-rule="evenodd" fill="#FFFFFF" d="M5.771,4.133c0.632,0,1.167-0.438,1.348-1.04
	C7.16,2.952,7.184,2.801,7.184,2.645c0-0.821-0.633-1.487-1.413-1.487S4.358,1.823,4.358,2.645C4.358,3.466,4.99,4.133,5.771,4.133z
	"/>
<path d="M0.699,1.971C0.313,1.971,0,1.657,0,1.27l0,0c0-0.386,0.312-0.701,0.699-0.701l0,0h0.07c0.387,0,0.701,0.314,0.701,0.701
	l0,0c0,0.387-0.314,0.701-0.701,0.701l0,0H0.699L0.699,1.971z"/>
<path d="M0.7,5.419C0.313,5.419,0,5.107,0,4.72l0,0C0,4.334,0.313,4.02,0.7,4.02l0,0h0.07c0.387,0,0.701,0.314,0.701,0.701l0,0
	c0,0.387-0.314,0.699-0.701,0.699l0,0H0.7L0.7,5.419z"/>
<path d="M0.699,8.85C0.313,8.85,0,8.536,0,8.15l0,0c0-0.387,0.313-0.7,0.699-0.7l0,0h0.07c0.387,0,0.701,0.313,0.701,0.7l0,0
	c0,0.386-0.314,0.699-0.701,0.699l0,0H0.699L0.699,8.85z"/>
<path d="M3.843,1.921c-0.358,0-0.65-0.292-0.65-0.65l0,0c0-0.36,0.292-0.65,0.65-0.65l0,0h7.001c0.357,0,0.649,0.29,0.649,0.65l0,0
	c0,0.358-0.292,0.65-0.649,0.65l0,0H3.843L3.843,1.921z"/>
<path d="M3.843,5.371c-0.358,0-0.65-0.292-0.65-0.65l0,0c0-0.36,0.292-0.65,0.65-0.65l0,0h7.001c0.357,0,0.649,0.29,0.649,0.65l0,0
	c0,0.358-0.292,0.65-0.649,0.65l0,0H3.843L3.843,5.371z"/>
<path d="M3.843,8.8c-0.358,0-0.65-0.29-0.65-0.649l0,0c0-0.358,0.292-0.65,0.65-0.65l0,0h7.001c0.357,0,0.649,0.292,0.649,0.65l0,0
	c0,0.359-0.292,0.649-0.649,0.649l0,0H3.843L3.843,8.8z"/>
</svg>
