<?xml version="1.0" encoding="utf-8"?>
<!-- Generator: Adobe Illustrator 13.0.0, SVG Export Plug-In  -->
<!DOCTYPE svg PUBLIC "-//W3C//DTD SVG 1.1//EN" "http://www.w3.org/Graphics/SVG/1.1/DTD/svg11.dtd" [
	<!ENTITY ns_flows "http://ns.adobe.com/Flows/1.0/">
]>
<svg version="1.1"
	 xmlns="http://www.w3.org/2000/svg" xmlns:xlink="http://www.w3.org/1999/xlink" xmlns:a="http://ns.adobe.com/AdobeSVGViewerExtensions/3.0/"
	 x="0px" y="0px" width="12px" height="12px" viewBox="-0.886 -0.801 12 12" enable-background="new -0.886 -0.801 12 12"
	 xml:space="preserve">
<defs>
</defs>
<path display="none" fill-rule="evenodd" clip-rule="evenodd" d="M5.771,10.931c0.04,0,2.982-4.939,2.982-6.674
	c0-1.734-1.335-3.141-2.982-3.141S2.788,2.522,2.788,4.257C2.788,5.992,5.731,10.931,5.771,10.931z"/>
<path display="none" fill-rule="evenodd" clip-rule="evenodd" fill="#FFFFFF" d="M5.771,5.249c0.632,0,1.167-0.438,1.348-1.04
	C7.16,4.068,7.184,3.917,7.184,3.761c0-0.821-0.633-1.487-1.413-1.487S4.358,2.939,4.358,3.761C4.358,4.583,4.99,5.249,5.771,5.249z
	"/>
<path display="none" d="M0.699,3.087C0.313,3.087,0,2.773,0,2.386l0,0C0,2,0.313,1.686,0.699,1.686l0,0h0.07
	C1.156,1.686,1.47,2,1.47,2.386l0,0c0,0.387-0.314,0.701-0.701,0.701l0,0H0.699L0.699,3.087z"/>
<path display="none" d="M0.7,6.536C0.313,6.536,0,6.223,0,5.836l0,0C0,5.45,0.313,5.136,0.7,5.136l0,0h0.07
	c0.387,0,0.701,0.314,0.701,0.701l0,0c0,0.387-0.314,0.699-0.701,0.699l0,0H0.7L0.7,6.536z"/>
<path display="none" d="M0.699,9.966C0.313,9.966,0,9.652,0,9.267l0,0c0-0.387,0.313-0.7,0.699-0.7l0,0h0.07
	c0.387,0,0.701,0.313,0.701,0.7l0,0c0,0.386-0.314,0.699-0.701,0.699l0,0H0.699L0.699,9.966z"/>
<path display="none" d="M3.843,3.037c-0.358,0-0.65-0.292-0.65-0.65l0,0c0-0.36,0.292-0.65,0.65-0.65l0,0h7.001
	c0.357,0,0.649,0.29,0.649,0.65l0,0c0,0.358-0.292,0.65-0.649,0.65l0,0H3.843L3.843,3.037z"/>
<path display="none" d="M3.843,6.487c-0.358,0-0.65-0.292-0.65-0.65l0,0c0-0.36,0.292-0.65,0.65-0.65l0,0h7.001
	c0.357,0,0.649,0.29,0.649,0.65l0,0c0,0.358-0.292,0.65-0.649,0.65l0,0H3.843L3.843,6.487z"/>
<path display="none" d="M3.843,9.916c-0.358,0-0.65-0.29-0.65-0.649l0,0c0-0.358,0.292-0.65,0.65-0.65l0,0h7.001
	c0.357,0,0.649,0.292,0.649,0.65l0,0c0,0.359-0.292,0.649-0.649,0.649l0,0H3.843L3.843,9.916z"/>
<path fill="#010101" d="M10.672,9.467L8.087,6.938c0.504-0.716,0.805-1.585,0.805-2.527C8.892,1.972,6.908,0,4.466,0
	C2.022,0,0.04,1.972,0.04,4.411c0,2.439,1.983,4.413,4.426,4.413c0.921,0,1.775-0.281,2.483-0.762l2.605,2.547
	c0.155,0.151,0.357,0.228,0.56,0.228c0.207,0,0.414-0.08,0.57-0.24C10.993,10.282,10.988,9.775,10.672,9.467z M1.438,4.411
	C1.442,2.75,2.792,1.402,4.466,1.398C6.138,1.402,7.49,2.75,7.493,4.411C7.49,6.073,6.138,7.422,4.466,7.424
	C2.792,7.422,1.442,6.073,1.438,4.411z"/>
</svg>
