<svg xmlns="http://www.w3.org/2000/svg" width="99" height="94" viewBox="0 0 99 94">
  <g fill-rule="evenodd">
    <path fill-rule="nonzero" d="M50.5123555,65.0024949 L89.1304545,65.0024949 C91.7711796,65.0024949 93.9406062,62.8379876 93.9406062,60.2032506 L93.9406062,9.94210147 C93.9406062,7.30736447 91.7711796,5.14285714 89.1304545,5.14285714 L9.96924261,5.14285714 C7.32851757,5.14285714 5.15909091,7.30736447 5.15909091,9.94210147 L5.15909091,60.202339 C5.15909091,62.837076 7.32851757,65.0015834 9.96924261,65.0015834 L26.7486369,65.0015834 L26.7486369,83.9699998 L50.5123555,65.0024949 Z M9.96924261,69.7634881 C4.69261308,69.7634881 0.386363636,65.4670034 0.386363636,60.202339 L0.386363636,9.94210147 C0.386363636,4.67743709 4.69261308,0.380952381 9.96924261,0.380952381 L89.1304545,0.380952381 C94.4070841,0.380952381 98.7133335,4.67743709 98.7133335,9.94210147 L98.7133335,60.2032506 C98.7133335,65.4679149 94.4070841,69.7643997 89.1304545,69.7643997 L52.1865129,69.7643997 L21.9759097,93.8776193 L21.9759097,69.7634881 L9.96924261,69.7634881 Z"/>
    <path d="M21.8636364,45.8021978 C21.8636364,48.8241758 23.6075175,50.6556777 26.6363636,50.6556777 C29.5734266,50.6556777 31.4090909,48.6410256 31.4090909,45.8021978 C31.4090909,42.5970696 29.5734266,40.8571429 26.6363636,40.8571429 C23.6075175,40.8571429 21.8636364,42.8717949 21.8636364,45.8021978 Z M44.6009091,45.8021978 C44.6009091,48.8241758 46.3447902,50.6556777 49.3736364,50.6556777 C52.3106993,50.6556777 54.1463636,48.6410256 54.1463636,45.8021978 C54.1463636,42.5970696 52.3106993,40.8571429 49.3736364,40.8571429 C46.3447902,40.8571429 44.6009091,42.8717949 44.6009091,45.8021978 Z M67.3381818,45.8021978 C67.3381818,48.8241758 69.0820629,50.6556777 72.1109091,50.6556777 C75.047972,50.6556777 76.8836364,48.6410256 76.8836364,45.8021978 C76.8836364,42.5970696 75.047972,40.8571429 72.1109091,40.8571429 C69.0820629,40.8571429 67.3381818,42.8717949 67.3381818,45.8021978 Z"/>
  </g>
</svg>
